<?xml version="1.0" standalone="no"?>
<!DOCTYPE svg PUBLIC "-//W3C//DTD SVG 20010904//EN"
 "http://www.w3.org/TR/2001/REC-SVG-20010904/DTD/svg10.dtd">
<svg version="1.0" xmlns="http://www.w3.org/2000/svg"
 width="846.000000pt" height="846.000000pt" viewBox="0 0 846.000000 846.000000"
 preserveAspectRatio="xMidYMid meet">

<g transform="translate(0.000000,846.000000) scale(0.100000,-0.100000)"
fill="#000000" stroke="none">
<path d="M1488 7622 c-736 -356 -1337 -649 -1338 -652 0 -10 2865 -716 2871
-707 4 5 -103 113 -237 240 -135 126 -243 232 -241 234 7 7 562 -18 737 -32
1317 -112 2379 -521 3054 -1174 348 -338 554 -706 647 -1157 30 -144 37 -476
15 -638 -52 -369 -195 -703 -440 -1031 -112 -150 -388 -427 -546 -549 -367
-283 -772 -490 -1283 -655 -649 -210 -1315 -301 -2195 -301 l-333 0 6 68 c3
37 14 240 25 452 12 212 22 390 24 396 3 7 87 13 258 18 502 14 822 52 1188
141 645 158 1119 417 1457 797 256 288 373 570 373 900 0 224 -47 417 -152
621 -253 492 -883 894 -1644 1046 -317 64 -565 86 -964 86 -420 -1 -716 -29
-1234 -116 -205 -34 -239 -46 -261 -88 -21 -42 -22 -58 -45 -521 -11 -223 -58
-1105 -105 -1960 -115 -2115 -125 -2304 -128 -2465 l-2 -139 90 -17 c441 -84
1290 -134 1865 -110 1362 57 2416 331 3357 872 944 543 1591 1332 1807 2204
59 239 81 448 73 715 -18 621 -220 1160 -623 1667 -43 54 -166 186 -273 294
-365 364 -698 600 -1196 844 -767 377 -1650 605 -2670 689 -181 15 -625 35
-873 39 l-133 2 211 306 c195 284 223 330 203 329 -5 -1 -610 -292 -1345 -648z
m1568 -2792 c485 -39 845 -182 1104 -439 80 -80 104 -111 138 -181 173 -353
-52 -741 -552 -954 -356 -152 -780 -226 -1287 -226 l-159 0 6 93 c3 50 25 451
48 889 23 439 46 801 50 805 19 20 458 28 652 13z"/>
</g>
</svg>
